# Blender 3.6.5
# www.blender.org
mtllib floor.mtl
o Cube
v 1.000000 -1.000000 1.000000
v 1.000000 1.000000 1.000000
v 0.754674 -0.754674 -1.000000
v 0.754674 0.754674 -1.000000
v -1.000000 -1.000000 1.000000
v -1.000000 1.000000 1.000000
v -0.754674 -0.754674 -1.000000
v -0.754674 0.754674 -1.000000
v -1.000000 1.000000 -1.000000
v -1.000000 -1.000000 -1.000000
v 1.000000 -1.000000 -1.000000
v 1.000000 1.000000 -1.000000
v -1.000000 1.000000 -1.000000
v -1.000000 -1.000000 -1.000000
v 1.000000 -1.000000 -1.000000
v 1.000000 1.000000 -1.000000
v -1.000000 1.000000 -1.000000
v -1.000000 -1.000000 -1.000000
v 1.000000 -1.000000 -1.000000
v 1.000000 1.000000 -1.000000
v -0.754674 0.754674 -2.652168
v -0.029332 0.029332 -3.377510
v -0.029332 -0.029332 -3.377510
v -0.754674 -0.754674 -2.652168
v 0.754674 -0.754674 -2.652168
v 0.029332 -0.029332 -3.377510
v 0.029332 0.029332 -3.377510
v 0.754674 0.754674 -2.652168
vn -0.0000 -1.0000 -0.0000
vn 1.0000 -0.0000 -0.0000
vn -1.0000 -0.0000 -0.0000
vn -0.0000 1.0000 -0.0000
vn -0.0000 -0.0000 1.0000
vn -0.0000 -0.0000 -1.0000
vn -0.7071 -0.0000 -0.7071
vn 0.7071 -0.0000 -0.7071
vn -0.0000 -0.7071 -0.7071
vn -0.0000 0.7071 -0.7071
vt 0.625000 0.500000
vt 0.875000 0.500000
vt 0.875000 0.750000
vt 0.625000 0.750000
vt 0.405666 0.780666
vt 0.594334 0.780666
vt 0.375000 0.000000
vt 0.625000 0.000000
vt 0.625000 0.250000
vt 0.375000 0.250000
vt 0.125000 0.500000
vt 0.375000 0.500000
vt 0.375000 0.750000
vt 0.125000 0.750000
vt 0.000000 0.000000
vt 0.625000 1.000000
vt 0.375000 1.000000
vt 0.405666 0.969334
vt 0.594334 0.969334
vt 0.496333 0.871333
vt 0.503667 0.871333
vt 0.503667 0.878667
vt 0.496334 0.878667
s 0
usemtl Material.001
f 1/1/1 5/2/1 10/3/1 11/4/1
f 4/5/2 3/6/2 25/6/2 28/5/2
f 9/7/3 10/8/3 5/9/3 6/10/3
f 6/11/4 2/12/4 12/13/4 9/14/4
f 2/12/2 1/1/2 11/4/2 12/13/2
f 6/10/5 5/9/5 1/1/5 2/12/5
f 13/15/1 14/15/5 10/15/1 9/15/5
f 15/15/1 16/15/5 12/15/1 11/15/5
f 14/16/1 15/4/5 11/4/1 10/16/5
f 16/13/1 13/17/5 9/17/1 12/13/5
f 17/15/1 18/15/5 14/15/1 13/15/5
f 19/15/1 20/15/5 16/15/1 15/15/5
f 18/16/1 19/4/5 15/4/1 14/16/5
f 20/13/1 17/17/5 13/17/1 16/13/5
f 8/18/6 7/19/6 18/16/6 17/17/6
f 3/6/6 4/5/6 20/13/6 19/4/6
f 7/19/6 3/6/6 19/4/6 18/16/6
f 4/5/6 8/18/6 17/17/6 20/13/6
f 8/18/4 4/5/4 28/5/4 21/18/4
f 27/20/6 26/21/6 23/22/6 22/23/6
f 3/6/1 7/19/1 24/19/1 25/6/1
f 22/23/7 23/22/7 24/19/7 21/18/7
f 26/21/8 27/20/8 28/5/8 25/6/8
f 25/6/9 24/19/9 23/22/9 26/21/9
f 21/18/10 28/5/10 27/20/10 22/23/10
f 7/19/3 8/18/3 21/18/3 24/19/3
